<svg width="30" height="30" viewBox="0 0 30 30" fill="none" xmlns="http://www.w3.org/2000/svg">
<circle cx="15" cy="15" r="14.5" stroke="#161313"/>
<path d="M5.99995 12.2857C5.99995 8.73529 8.87811 5.85713 12.4285 5.85713C15.9789 5.85713 18.8571 8.73529 18.8571 12.2857C18.8571 15.8361 15.9789 18.7143 12.4285 18.7143C11.3122 18.7143 10.2641 18.4303 9.35059 17.931C9.20555 17.8518 9.03556 17.8314 8.87592 17.8742L6.08991 18.6208L6.83696 15.8327C6.87968 15.6733 6.85943 15.5035 6.78039 15.3586C6.28292 14.4463 5.99995 13.4 5.99995 12.2857ZM12.4285 4.57141C8.16804 4.57141 4.71423 8.02522 4.71423 12.2857C4.71423 13.5272 5.00798 14.7017 5.53016 15.7421L4.75195 18.6465C4.53848 19.4432 5.26749 20.1722 6.06417 19.9587L8.96622 19.1811C10.008 19.7051 11.1847 20 12.4285 20C16.689 20 20.1428 16.5462 20.1428 12.2857C20.1428 8.02522 16.689 4.57141 12.4285 4.57141ZM17.5714 23.4286C15.2757 23.4286 13.2143 22.4259 11.8012 20.8345C12.0083 20.8496 12.2176 20.8572 12.4285 20.8572C12.8289 20.8572 13.2228 20.8298 13.6086 20.7766C14.7005 21.6326 16.0763 22.1429 17.5714 22.1429C18.6877 22.1429 19.7358 21.8589 20.6493 21.3597C20.7943 21.2805 20.9643 21.2601 21.124 21.3028L23.9099 22.0493L23.1629 19.2614C23.1202 19.1019 23.1404 18.9322 23.2194 18.7872C23.7169 17.875 23.9999 16.8286 23.9999 15.7144C23.9999 13.3083 22.6781 11.211 20.721 10.1089C20.5662 9.51757 20.3499 8.95111 20.0791 8.41684C23.1085 9.45766 25.2857 12.3317 25.2857 15.7144C25.2857 16.9558 24.9919 18.1304 24.4697 19.1708L25.2479 22.0751C25.4614 22.8718 24.7324 23.6008 23.9357 23.3873L21.0336 22.6097C19.9919 23.1338 18.8152 23.4286 17.5714 23.4286Z" fill="#161313"/>
</svg>
