<svg width="30" height="30" viewBox="0 0 30 30" fill="none" xmlns="http://www.w3.org/2000/svg">
<circle cx="15" cy="15" r="14.5" stroke="#161313"/>
<path d="M15 5.00098C19.0041 5.00098 22.25 8.24691 22.25 12.251C22.25 14.347 21.3493 16.2707 19.5869 17.9929C19.51 18.0681 19.4504 18.1586 19.4118 18.2582L19.3804 18.3605L18.2493 23.2561C18.0266 24.22 17.2035 24.9183 16.2302 24.993L16.057 24.9996H13.9433C12.9537 24.9996 12.0879 24.3545 11.7963 23.4228L11.7509 23.2555L10.6213 18.3607C10.589 18.2208 10.5173 18.0931 10.4146 17.9928C8.73515 16.3526 7.83778 14.5297 7.75613 12.5492L7.75 12.251L7.75388 12.0117C7.88014 8.11837 11.076 5.00098 15 5.00098ZM17.115 21.499H12.884L13.2125 22.9182C13.2831 23.2245 13.5357 23.4504 13.8401 23.4925L13.9433 23.4996H16.057C16.3713 23.4996 16.6481 23.3044 16.7577 23.0174L16.7878 22.9184L17.115 21.499ZM15 6.50098C11.8982 6.50098 9.37006 8.95699 9.25415 12.0304L9.25 12.251L9.25672 12.528C9.33286 14.0913 10.0572 15.5471 11.4626 16.9197C11.7267 17.1777 11.9226 17.496 12.0342 17.846L12.0829 18.0235L12.538 19.999H17.461L17.9189 18.0228C18.0019 17.6634 18.1718 17.3309 18.4124 17.0539L18.5386 16.9201C19.9432 15.5475 20.6672 14.0916 20.7433 12.528L20.75 12.251L20.7458 12.0304C20.6299 8.95699 18.1018 6.50098 15 6.50098Z" fill="#161313"/>
</svg>
