<svg width="30" height="30" viewBox="0 0 30 30" fill="none" xmlns="http://www.w3.org/2000/svg">
<circle cx="15" cy="15" r="14.5" stroke="#161313"/>
<path d="M16.6587 6.97289C16.1841 6.01131 14.8129 6.01132 14.3383 6.97289L12.0787 11.5515L7.02583 12.2858C5.96467 12.44 5.54095 13.744 6.30882 14.4925L9.96509 18.0564L9.10196 23.0889C8.92069 24.1458 10.03 24.9517 10.9791 24.4527L15.4985 22.0768L20.0179 24.4527C20.967 24.9517 22.0763 24.1458 21.8951 23.0889L21.0319 18.0564L24.6883 14.4925C25.4561 13.744 25.0324 12.44 23.9712 12.2858L18.9184 11.5515L16.6587 6.97289ZM13.3343 12.2555L15.4985 7.87027L17.6628 12.2555C17.8512 12.6373 18.2155 12.902 18.6369 12.9632L23.4762 13.6664L19.9744 17.0799C19.6696 17.3771 19.5304 17.8053 19.6024 18.225L20.429 23.0449L16.1005 20.7692C15.7236 20.571 15.2734 20.571 14.8965 20.7692L10.568 23.0449L11.3947 18.225C11.4667 17.8053 11.3275 17.3771 11.0226 17.0799L7.52078 13.6664L12.3602 12.9632C12.7816 12.902 13.1458 12.6373 13.3343 12.2555ZM5.1159 7.62348C4.86792 7.93344 4.91818 8.38574 5.22815 8.63372L7.62399 10.5504C7.93395 10.7984 8.38625 10.7481 8.63423 10.4381C8.88221 10.1282 8.83196 9.67587 8.52198 9.42789L6.12615 7.51123C5.81618 7.26325 5.36387 7.3135 5.1159 7.62348ZM25.8843 21.459C26.1323 21.149 26.082 20.6967 25.772 20.4487L23.3762 18.5321C23.0662 18.2841 22.6139 18.3344 22.3659 18.6443C22.1179 18.9543 22.1682 19.4065 22.4781 19.6546L24.874 21.5712C25.184 21.8191 25.6362 21.7689 25.8843 21.459ZM5.22815 20.4487C4.91818 20.6967 4.86792 21.149 5.1159 21.459C5.36387 21.7689 5.81618 21.8191 6.12615 21.5712L8.52198 19.6546C8.83196 19.4065 8.88221 18.9543 8.63423 18.6443C8.38625 18.3344 7.93395 18.2841 7.62399 18.5321L5.22815 20.4487ZM25.8843 7.62348C26.1323 7.93344 26.082 8.38574 25.772 8.63372L23.3762 10.5504C23.0662 10.7984 22.6139 10.7481 22.3659 10.4381C22.1179 10.1282 22.1682 9.67587 22.4781 9.42789L24.874 7.51123C25.184 7.26325 25.6362 7.3135 25.8843 7.62348Z" fill="#161313"/>
</svg>
