<svg width="30" height="30" viewBox="0 0 30 30" fill="none" xmlns="http://www.w3.org/2000/svg">
<circle cx="15" cy="15" r="14.5" stroke="#161313"/>
<path d="M11.0656 21.9434L17.5656 7.44339C17.7351 7.06542 18.1788 6.89637 18.5568 7.0658C18.9033 7.22112 19.0742 7.60695 18.9698 7.96131L18.9344 8.05698L12.4344 22.557C12.265 22.935 11.8212 23.104 11.4432 22.9346C11.0967 22.7793 10.9258 22.3934 11.0302 22.0391L11.0656 21.9434L17.5656 7.44339L11.0656 21.9434ZM5.21967 14.4699L9.46967 10.2199C9.76256 9.92696 10.2374 9.92696 10.5303 10.2199C10.7966 10.4861 10.8208 10.9028 10.603 11.1964L10.5303 11.2805L6.81066 15.0002L10.5303 18.7199C10.8232 19.0127 10.8232 19.4876 10.5303 19.7805C10.2641 20.0468 9.8474 20.071 9.55379 19.8531L9.46967 19.7805L5.21967 15.5305C4.9534 15.2642 4.9292 14.8476 5.14705 14.554L5.21967 14.4699L9.46967 10.2199L5.21967 14.4699ZM19.4697 10.2199C19.7359 9.95359 20.1526 9.92938 20.4462 10.1472L20.5303 10.2199L24.7803 14.4699C25.0466 14.7361 25.0708 15.1528 24.8529 15.4464L24.7803 15.5305L20.5303 19.7805C20.2374 20.0734 19.7626 20.0734 19.4697 19.7805C19.2034 19.5143 19.1792 19.0976 19.3971 18.804L19.4697 18.7199L23.1893 15.0002L19.4697 11.2805C19.1768 10.9876 19.1768 10.5128 19.4697 10.2199Z" fill="#161313"/>
</svg>
